# xmcd CD database file
#
# Track frame offsets:
#	150
#	19806
#	42918
#	76669
#	104491
#	118618
#	133535
#	149745
#	165822
#	190833
#	206381
#	221645
#	239322
#	261602
#
# Disc length: 3662 seconds
#
# Revision: 12
# Processed by: cddbd v1.5.1PL0 Copyright (c) Steve Scherf et al.
# Submitted via: CDex 1.51
#
DISCID=c50e4c0e
DTITLE=Buena Vista Social Club - Buena Vista Social Club
DYEAR=2000
DGENRE=Salsa
TTITLE0=Chan Chan
TTITLE1=De Camino A La Vereda
TTITLE2=El Cuarto De Tula
TTITLE3=Pueblo Nuevo
TTITLE4=Dos Gardenias
TTITLE5=¿Y Tú Qué Has Hecho?
TTITLE6=Veinte Años
TTITLE7=El Carretero
TTITLE8=Candela
TTITLE9=Amor De Loca Juventud
TTITLE10=Orgullecida
TTITLE11=Murmullo
TTITLE12=Buena Vista Social Club
TTITLE13=La Bayamesa
EXTD=Musicians: Compay Segundo, Ibrahim Ferrer, Ruben Gonzales, Eliades Ocha, Ry Cooder, a. m. m.\n\nProduced by Ry Cooder\n\nMovie "Buena Vista Social Club" directed by Wim Wenders, (p) 1999\nURL: <http://www.imdb.com/Title?0186508> YEAR: 2000
EXTT0=
EXTT1=
EXTT2=
EXTT3=
EXTT4=
EXTT5=
EXTT6=
EXTT7=
EXTT8=
EXTT9=
EXTT10=
EXTT11=
EXTT12=
EXTT13=
PLAYORDER=
